<?xml version="1.0" encoding="utf-8"?>
<!-- Generator: Adobe Illustrator 24.1.2, SVG Export Plug-In . SVG Version: 6.00 Build 0)  -->
<svg version="1.1" xmlns="http://www.w3.org/2000/svg" xmlns:xlink="http://www.w3.org/1999/xlink" x="0px" y="0px"
	 viewBox="0 0 792 612" style="enable-background:new 0 0 792 612;" xml:space="preserve">
<style type="text/css">
	.st0{fill:none;}
	.st1{fill:#FFFFFF;stroke:#000000;stroke-miterlimit:10;}
	.st2{fill:none;stroke:#000000;stroke-miterlimit:10;}
	.st3{fill:#FFFFFF;stroke:#F1F2F2;stroke-width:0.5;stroke-miterlimit:10;}
	.st4{fill:#FFFFFF;stroke:#000000;stroke-width:3;stroke-miterlimit:10;}
	.st5{fill:none;stroke:#000000;stroke-width:2;stroke-miterlimit:10;}
	.st6{fill:#F1F2F2;stroke:#000000;stroke-width:2;stroke-miterlimit:10;}
	.st7{stroke:#000000;stroke-miterlimit:10;}
	.st8{fill:#FFFFFF;stroke:#000000;stroke-width:2;stroke-miterlimit:10;}
	.st9{fill:none;stroke:#F1F2F2;stroke-width:0.5;stroke-miterlimit:10;}
	.st10{fill:#FFFFFF;}
</style>
<g id="OWNERSHIP_LAYER">
	<rect x="164.43" y="360.1" class="st0" width="66.38" height="26.21"/>
	<text transform="matrix(1 0 0 1 164.4324 365.1888)">Jordan Powell has </tspan>rights and owns </tspan>this logo</tspan></text>
</g>
<g id="Layer_1">
	<g>
		<g>
		</g>
	</g>
	<g>
		<polygon class="st1" points="332.82,359.47 271.38,257.82 292.92,218.37 340.88,226.87 393.78,333.4 		"/>
		<polyline class="st1" points="271.38,257.82 315.57,261.4 340.88,226.87 		"/>
		<polyline class="st1" points="292.92,218.37 294.68,221.7 318.85,267.36 362.58,346.74 		"/>
		<polyline class="st2" points="340.88,349.6 287.7,259.14 292.92,218.37 		"/>
		<polyline class="st2" points="368.41,336.77 331.03,240.3 293.86,220.21 		"/>
		<path class="st2" d="M293.86,220.21"/>
		<line class="st2" x1="380.64" y1="336.77" x2="334.57" y2="235.47"/>
	</g>
	<g>
		<polygon class="st1" points="436.93,359.47 498.37,257.82 476.83,218.37 428.87,226.87 375.97,333.4 		"/>
		<polyline class="st1" points="498.37,257.82 454.18,261.4 428.87,226.87 		"/>
		<polyline class="st1" points="476.82,218.44 475.06,221.77 450.9,267.36 407.17,346.74 		"/>
		<polyline class="st2" points="423.77,350.15 484.54,258.94 476.83,218.37 		"/>
		<path class="st2" d="M475.89,220.21"/>
		<path class="st2" d="M487.99,259.9"/>
		<path class="st2" d="M424.34,353.68"/>
		<polyline class="st2" points="398.99,342.84 439.21,240.98 476.82,218.44 		"/>
		<path class="st2" d="M475.89,220.21"/>
		<line class="st2" x1="389.11" y1="336.77" x2="435.18" y2="235.47"/>
	</g>
	<polygon class="st1" points="337.71,360.1 331.03,208.96 384.19,173.23 437.34,207.51 430.24,360.1 	"/>
	<polyline class="st1" points="331.03,208.96 384.19,234.85 437.34,207.51 423.77,214.48 405,224.15 	"/>
	<polyline class="st1" points="384.19,173.23 384.1,178.05 384.13,244.21 384.13,360.1 	"/>
	<polyline class="st2" points="365.78,361.19 353,220.21 384.19,173.23 	"/>
	<polyline class="st2" points="393.22,363.26 415.43,217.61 384.19,173.77 	"/>
	<g>
		<g>
			<path d="M273.29,382.72h7.46c3.17,0,5.42,0.44,6.76,1.31c1.71,1.1,2.56,2.62,2.56,4.57c0,1.18-0.33,2.21-0.98,3.09
				c-0.65,0.87-1.57,1.5-2.74,1.89c-1.17,0.39-3.04,0.58-5.6,0.58h-2.04v8.04l2.03,1.83h-7.73l2.31-1.94v-6.66
				c-0.13-0.01-0.23-0.02-0.28-0.02c-0.8,0-1.56,0.17-2.29,0.51l-0.15-0.3c0.74-0.42,1.41-0.63,1.99-0.63h0.6l0.13-0.02v-0.81
				c-0.25-0.03-0.43-0.05-0.52-0.05c-1.19,0-2.13,0.29-2.84,0.86l-0.17-0.25c0.68-1.24,1.76-1.86,3.26-1.86h0.27v-8.13
				L273.29,382.72z M289.22,384.5c0.68,0.33,1.22,0.92,1.63,1.75c0.41,0.83,0.61,1.78,0.61,2.85c0,2.4-0.93,4.13-2.79,5.18
				c-1.41,0.8-3.81,1.2-7.21,1.2c-0.56,0-1.04-0.01-1.43-0.03v6.86l2.61,3.09h-8.32l-0.45-0.45h7.83l-2.13-2.46v-7.49
				c0.96,0.06,1.99,0.08,3.07,0.08c2.86,0,4.98-0.5,6.36-1.51s2.08-2.55,2.08-4.63c0-0.86-0.13-1.61-0.4-2.25
				C290.42,386.04,289.93,385.32,289.22,384.5z M278.71,384.43v8.32h0.22l0.43,0.02c0.04,0,0.12-0.01,0.22-0.02v-7.4h1.83
				c1.42,0,2.42,0.12,3,0.37c0.58,0.25,1.08,0.77,1.49,1.55c-0.41-0.56-0.92-0.96-1.54-1.19c-0.61-0.23-1.48-0.34-2.6-0.34h-1.71
				v7.01c2.19,0,3.8-0.32,4.83-0.96s1.54-1.65,1.54-3.02c0-1.54-0.46-2.66-1.37-3.35c-0.91-0.7-2.38-1.05-4.41-1.05
				C280.1,384.36,279.46,384.39,278.71,384.43z"/>
			<path d="M292.88,382.72h7.81l-2.26,2.21v7.17c0.25,0.04,0.55,0.08,0.9,0.1v-7.11l1.81-1.79l0.33,0.3l-1.71,1.69v6.92l0.55,0.05
				c0.85,0.08,1.68,0.12,2.48,0.12c1.15,0,2.14-0.06,2.97-0.17v-7.64l-2.03-1.86h7.68l-2.29,2.21v17.3l2.01,1.79h-7.64l2.28-1.94
				v-7.04c-0.93,0.22-1.89,0.33-2.87,0.33c-0.93,0-1.89-0.05-2.89-0.15l-0.23-0.02v7.02l2.74,3.15h-8.59l-0.43-0.45h8.11l-2.26-2.47
				v-7.64l0.48,0.03c1.46,0.11,2.52,0.17,3.17,0.17c1.06,0,1.99-0.14,2.77-0.43v-0.6c-1.04,0.16-2.25,0.23-3.64,0.23
				c-0.74,0-1.28-0.02-1.63-0.05l-1.68-0.15c-0.07-0.01-0.19-0.02-0.38-0.03v8.23l2.13,1.79h-7.68l2.23-1.94v-7.25
				c-0.93,0-1.67,0.37-2.23,1.1l-0.35-0.17c0.64-0.81,1.5-1.26,2.58-1.34v-0.61c-1.24,0-2.22,0.47-2.94,1.41l-0.25-0.17
				c0.65-1.59,1.72-2.53,3.19-2.82v-7.47L292.88,382.72z M312.1,383.65l-1.69,1.64v16.93l2.76,3.15h-8.62l-0.42-0.45h8.09
				l-2.23-2.51v-17.3l1.84-1.83L312.1,383.65z"/>
			<path d="M323.17,382.5c2.69,0,4.84,1.02,6.46,3.05s2.42,4.76,2.42,8.17c0,3.22-0.79,5.79-2.38,7.7
				c-1.59,1.92-3.72,2.87-6.41,2.87c-2.12,0-4-0.67-5.65-2.03c-2.43-1.99-3.64-4.94-3.64-8.85c0-3.34,0.83-6,2.49-7.97
				C318.12,383.49,320.35,382.5,323.17,382.5z M323.17,383.93c-3.74,0-5.62,3.29-5.62,9.86c0,6.08,1.84,9.11,5.53,9.11
				c1.72,0,3.02-0.81,3.92-2.42c0.9-1.61,1.35-3.97,1.35-7.06c0-3.51-0.43-5.95-1.3-7.34C326.15,384.65,324.85,383.93,323.17,383.93
				z M328.47,383.35c1.58,0.76,2.84,2.07,3.75,3.92s1.38,3.98,1.38,6.41c0,3.56-0.91,6.44-2.72,8.63s-4.19,3.29-7.14,3.29
				c-1.88,0-3.64-0.64-5.28-1.91v-0.08c1.37,1.01,3.1,1.51,5.17,1.51c2.78,0,5.06-1.05,6.85-3.14s2.68-4.76,2.68-8.02
				c0-2.42-0.41-4.54-1.22-6.36c-0.81-1.82-1.97-3.17-3.46-4.07V383.35z M326.72,386.42l-0.28-0.17c-1.06-0.59-2.04-0.88-2.92-0.88
				c-2.91,0-4.37,2.86-4.37,8.58c0,4.18,0.9,6.96,2.71,8.32l-0.15,0.17c-1.11-0.79-1.9-1.82-2.37-3.1
				c-0.47-1.28-0.71-3.01-0.71-5.19c0-6.14,1.62-9.21,4.85-9.21C324.96,384.94,326.04,385.44,326.72,386.42z"/>
			<path d="M353.61,382.72c-0.1,0.19-0.17,0.32-0.2,0.38l-1.13,1.99c-0.39,0.71-0.75,1.59-1.08,2.66l-0.03,0.08l-0.17-0.12
				l-0.05-0.22c-0.32-1.26-0.78-2.14-1.37-2.62c-0.59-0.49-1.5-0.73-2.72-0.73c-0.5,0-1,0.02-1.5,0.07h-0.2v18l1.96,1.81h-7.59
				l2.33-1.94v-16.52l-1.18-0.02c-1.14,0-1.95,0.22-2.43,0.67c-0.48,0.45-0.77,1.24-0.86,2.37h-0.43c0.12-1.29,0.46-2.2,1.01-2.71
				s1.45-0.76,2.72-0.76l1,0.02h0.18v-0.81c-0.56-0.07-1.1-0.1-1.61-0.1c-1.43,0-2.46,0.29-3.09,0.87
				c-0.63,0.58-0.98,1.56-1.05,2.95h-0.2c-0.48-1.54-1.21-3.25-2.21-5.15l-0.1-0.17H353.61z M350.22,386.36
				c-0.85-0.55-1.85-0.83-2.99-0.83c-0.25,0-0.52,0.02-0.8,0.05l0.07,16.68l2.64,3.12h-8.49l-0.38-0.45h7.96l-2.23-2.54v-17.3
				l0.9-0.02c1.07,0,1.84,0.09,2.28,0.26C349.63,385.51,349.97,385.85,350.22,386.36z M354.65,383.77
				c-0.76,0.97-1.57,2.59-2.41,4.85l-0.07,0.17l-0.37-0.32l0.05-0.15c0.82-2.29,1.61-3.88,2.38-4.78l0.08-0.1L354.65,383.77z"/>
			<path d="M364.09,382.5c2.69,0,4.84,1.02,6.46,3.05s2.42,4.76,2.42,8.17c0,3.22-0.79,5.79-2.38,7.7
				c-1.59,1.92-3.72,2.87-6.41,2.87c-2.12,0-4-0.67-5.65-2.03c-2.43-1.99-3.64-4.94-3.64-8.85c0-3.34,0.83-6,2.49-7.97
				C359.04,383.49,361.28,382.5,364.09,382.5z M364.09,383.93c-3.74,0-5.62,3.29-5.62,9.86c0,6.08,1.84,9.11,5.53,9.11
				c1.72,0,3.02-0.81,3.92-2.42c0.9-1.61,1.35-3.97,1.35-7.06c0-3.51-0.43-5.95-1.3-7.34C367.07,384.65,365.77,383.93,364.09,383.93
				z M369.39,383.35c1.58,0.76,2.84,2.07,3.75,3.92s1.38,3.98,1.38,6.41c0,3.56-0.91,6.44-2.72,8.63s-4.19,3.29-7.14,3.29
				c-1.88,0-3.64-0.64-5.28-1.91v-0.08c1.37,1.01,3.1,1.51,5.17,1.51c2.78,0,5.06-1.05,6.85-3.14s2.68-4.76,2.68-8.02
				c0-2.42-0.41-4.54-1.22-6.36c-0.81-1.82-1.97-3.17-3.46-4.07V383.35z M367.65,386.42l-0.28-0.17c-1.06-0.59-2.04-0.88-2.92-0.88
				c-2.91,0-4.37,2.86-4.37,8.58c0,4.18,0.9,6.96,2.71,8.32l-0.15,0.17c-1.11-0.79-1.9-1.82-2.37-3.1
				c-0.47-1.28-0.71-3.01-0.71-5.19c0-6.14,1.62-9.21,4.85-9.21C365.88,384.94,366.96,385.44,367.65,386.42z"/>
			<path d="M394.8,383.3l-3.11,6.11c-0.2-1.74-0.75-3.07-1.64-3.98s-2.07-1.38-3.53-1.38c-2.08,0-3.7,0.81-4.86,2.42
				c-1.16,1.62-1.74,3.88-1.74,6.79c0,6.41,2.63,9.61,7.88,9.61h2.68v-8.62h-4.19c-0.91,0-1.56-0.05-1.95-0.15s-0.77-0.32-1.14-0.65
				v-0.42c0.4,0.3,0.8,0.5,1.2,0.59c0.4,0.09,1.05,0.14,1.94,0.14h4.14v-0.9h-4.62h-0.75c-1.65,0-2.48-0.6-2.48-1.79
				c0-0.46,0.14-0.86,0.42-1.2s0.61-0.5,1-0.5c0.29,0,0.54,0.11,0.76,0.32s0.32,0.46,0.32,0.75c0,0.49-0.18,0.77-0.53,0.85
				l-0.4,0.08c-0.13,0.03-0.2,0.09-0.2,0.17c0,0.14,0.18,0.22,0.55,0.22h0.56h10.97l-2.29,2.24v8.18l2.13,1.83h-8.49h-1.68
				c-1.41,0-2.57-0.17-3.49-0.51c-0.92-0.34-1.85-0.95-2.79-1.83c-2.23-2.04-3.34-4.76-3.34-8.18c0-3.53,1.05-6.29,3.16-8.27
				c1.84-1.74,4.02-2.61,6.55-2.61c1.13,0,2.43,0.2,3.89,0.6c1.5,0.41,2.48,0.61,2.96,0.61C393.37,383.83,394.08,383.66,394.8,383.3
				z M390.48,386.87l-0.3-0.22c-1.26-0.9-2.42-1.34-3.46-1.34c-1.26,0-2.35,0.45-3.27,1.34c-0.66,0.66-1.14,1.53-1.44,2.61
				s-0.44,2.49-0.44,4.25c0,2.24,0.22,3.95,0.66,5.13c0.44,1.18,1.26,2.25,2.44,3.2v0.18c-1.29-0.76-2.21-1.84-2.77-3.23
				c-0.56-1.39-0.85-3.27-0.85-5.65c0-2.62,0.49-4.66,1.48-6.12c0.99-1.46,2.37-2.18,4.15-2.18c1.55,0,2.81,0.64,3.79,1.93V386.87z
				 M396.79,392.71l-1.71,1.71v7.79l2.76,3.17l-6.6-0.05l-5.98,0.07c-0.38,0-0.66-0.01-0.86-0.03c-0.7-0.08-1.4-0.38-2.11-0.91h0.35
				c0.75,0.33,1.78,0.5,3.09,0.5l0.83-0.02h10.35l-2.29-2.54v-8.13l1.91-1.93L396.79,392.71z M395.79,384.35l-2.84,5.58l-0.4-0.18
				l2.86-5.59L395.79,384.35z"/>
			<path d="M399.98,384.71c2.63-1.52,5.45-2.27,8.47-2.27c2.35,0,4.28,0.51,5.81,1.53s2.28,2.31,2.28,3.88c0,1.28-0.5,2.42-1.5,3.41
				c-1,0.99-2.36,1.71-4.09,2.15c0.76,2.1,1.8,4.15,3.12,6.14s2.63,3.52,3.95,4.58l-0.25,0.08c-1.65,0.56-3.27,1.36-4.85,2.39
				l-0.25,0.17l-0.08-0.53c-0.71-4.28-1.7-7.91-2.97-10.89l-0.07-0.17c-0.76,0.35-1.79,0.64-3.07,0.85l-0.13,0.02v6.21l2.92,3.12
				h-8.59l-0.27-0.45h7.91l-2.41-2.56v-6.69l0.35-0.05c1.26-0.13,2.32-0.38,3.17-0.75c-0.07-0.13-0.1-0.22-0.12-0.25l-0.17-0.48
				c-0.01-0.03-0.04-0.1-0.08-0.2c-0.69,0.2-1.98,0.42-3.89,0.65l-0.18,0.03v7.4l1.89,1.98h-7.34l2.16-1.98v-5.58l-0.13,0.02
				c-0.64,0.14-1.22,0.3-1.75,0.48l-0.13,0.05l-0.15-0.33c0.49-0.19,0.87-0.32,1.15-0.38l0.88-0.22l0.13-0.03v-0.86
				c-0.65,0-1.47,0.14-2.44,0.43l-0.18,0.07c0.02-0.16,0.13-0.51,0.33-1.08c0.02-0.04,0.1-0.29,0.23-0.75
				c0.01-0.03,0.03-0.08,0.05-0.15c0.5,0.03,0.89,0.05,1.16,0.05c0.3,0,0.58-0.02,0.83-0.05v-8.17c-0.51-0.31-1.04-0.57-1.58-0.78
				L399.98,384.71z M405,384.28v8.95c0.32,0,0.63-0.03,0.91-0.08v-8.17c0.61-0.17,1.34-0.25,2.19-0.25c2.16,0,3.63,0.71,4.4,2.13
				c-0.82-0.66-1.54-1.12-2.16-1.37c-0.62-0.25-1.36-0.37-2.23-0.37c-0.68,0-1.27,0.07-1.78,0.2v7.84l0.18-0.03
				c2.18-0.4,3.8-1.03,4.86-1.88c1.06-0.86,1.59-1.97,1.59-3.35c0-1.23-0.48-2.24-1.43-3.05c-0.95-0.8-2.15-1.2-3.61-1.2
				C406.78,383.63,405.79,383.85,405,384.28z M413.02,394.24c0.7,2.28,1.93,4.51,3.71,6.69c1.11,1.36,2.51,2.58,4.2,3.67
				c-2.54,0.67-4.92,1.7-7.14,3.09l-0.15,0.1l-0.33-0.27c2.12-1.38,4.37-2.4,6.76-3.05c-3.19-2.13-5.7-5.52-7.53-10.19l-0.1-0.28
				c3.39-1.28,5.08-3.24,5.08-5.88c0-1.08-0.44-2.27-1.31-3.55c1.12,1.02,1.68,2.31,1.68,3.88
				C417.89,390.99,416.27,392.92,413.02,394.24z"/>
			<path d="M436.2,382.72l-1.73,1.96l2.72,7.24l0.67-0.37l-2.46-6.54l1.76-2.03l0.43,0.18l-1.68,1.94l2.33,6.19
				c0.13-0.1,0.21-0.16,0.23-0.18l0.55-0.46c0.33-0.27,0.54-0.45,0.63-0.56c0.29,1.26,0.73,2.39,1.33,3.39
				c-0.32-0.02-0.55-0.03-0.7-0.03c-1.05,0-1.82,0.17-2.31,0.5l3.01,8.15l2.49,1.93h-8.39l2.29-1.93l-1.84-4.85
				c-1.22,1.23-2.15,2.4-2.81,3.5l-0.38-0.1c0.65-1.08,1.63-2.3,2.92-3.64l0.13-0.17l-0.32-0.73c-1.32,1.1-2.41,2.37-3.27,3.82
				l-0.3-0.48c-0.58-0.92-1.31-1.96-2.21-3.14l-0.17-0.2c-0.85,1.89-1.28,3.43-1.28,4.62c0,0.7,0.12,1.29,0.36,1.77
				c0.24,0.48,0.81,1.29,1.72,2.42c0.08,0.1,0.2,0.25,0.37,0.46h-8.97l-0.33-0.45h8.46l-0.28-0.35c-0.73-0.89-1.21-1.57-1.44-2.07
				c-0.23-0.49-0.34-1.07-0.34-1.74c0-1.13,0.46-2.81,1.38-5.05l-0.73-0.76c-0.14,0.35-0.33,0.87-0.55,1.56l-0.55,1.69
				c-0.3,0.91-0.45,1.66-0.45,2.26c0,0.62,0.11,1.13,0.32,1.54c0.21,0.41,0.65,0.97,1.33,1.68c0.07,0.07,0.17,0.17,0.3,0.32h-8.31
				c1.58-0.82,2.84-1.92,3.76-3.3s1.84-3.52,2.75-6.41l0.07-0.23c-0.59-0.5-1.43-0.8-2.54-0.91c0.61-0.91,1.08-1.85,1.41-2.84
				c0.16,0.14,0.25,0.23,0.28,0.27l0.75,0.7c0.25,0.24,0.56,0.49,0.91,0.75l0.3-0.73l-0.2-0.17c-0.55-0.49-1.02-0.88-1.4-1.18
				l-0.15-0.12l0.27-0.37c0.59,0.39,1.15,0.84,1.69,1.34l2.26-6.21l-1.76-1.89H436.2z M431.35,386.12l-2.64,6.97
				c0.84,0.86,1.57,1.72,2.18,2.56l0.76,1.06c0.01,0.01,0.07,0.08,0.17,0.22c0.1-0.1,0.15-0.16,0.17-0.18l0.23-0.28
				c0.03-0.04,0.09-0.12,0.18-0.22c-0.78-1.2-1.68-2.27-2.71-3.24l2.13-5.61L431.35,386.12z M432.1,388.05l-1.83,4.81
				c0.1,0.11,0.16,0.18,0.17,0.2l0.68,0.76c0.37,0.4,0.83,1.02,1.4,1.86l0.17,0.25c0.48-0.6,1.04-1.19,1.7-1.78L432.1,388.05z
				 M441.12,390.89c0.24,1,0.85,2.36,1.83,4.1c-0.24-0.03-0.38-0.05-0.42-0.05l-1.35-0.12c-0.61-0.06-1.05-0.08-1.33-0.08
				c-0.04,0-0.16,0.01-0.33,0.02l2.77,7.35l3.71,3.27h-9.62l-0.32-0.45h8.82l-2.99-2.64l-2.96-7.82c0.38-0.1,0.81-0.15,1.3-0.15
				c0.6,0,1.26,0.05,1.99,0.15l-0.2-0.37c-0.71-1.31-1.19-2.48-1.43-3.54L441.12,390.89z"/>
			<path d="M447.5,382.72h7.46c3.17,0,5.42,0.44,6.76,1.31c1.71,1.1,2.56,2.62,2.56,4.57c0,1.18-0.33,2.21-0.98,3.09
				c-0.65,0.87-1.57,1.5-2.74,1.89s-3.04,0.58-5.6,0.58h-2.04v8.04l2.03,1.83h-7.73l2.31-1.94v-6.66c-0.13-0.01-0.23-0.02-0.28-0.02
				c-0.8,0-1.56,0.17-2.29,0.51l-0.15-0.3c0.74-0.42,1.41-0.63,1.99-0.63h0.6l0.13-0.02v-0.81c-0.25-0.03-0.43-0.05-0.52-0.05
				c-1.18,0-2.13,0.29-2.84,0.86l-0.17-0.25c0.68-1.24,1.76-1.86,3.26-1.86h0.27v-8.13L447.5,382.72z M463.43,384.5
				c0.67,0.33,1.22,0.92,1.63,1.75c0.41,0.83,0.61,1.78,0.61,2.85c0,2.4-0.93,4.13-2.79,5.18c-1.41,0.8-3.81,1.2-7.21,1.2
				c-0.56,0-1.04-0.01-1.43-0.03v6.86l2.61,3.09h-8.32l-0.45-0.45h7.83l-2.13-2.46v-7.49c0.96,0.06,1.99,0.08,3.07,0.08
				c2.86,0,4.98-0.5,6.36-1.51s2.08-2.55,2.08-4.63c0-0.86-0.13-1.61-0.4-2.25C464.63,386.04,464.14,385.32,463.43,384.5z
				 M452.92,384.43v8.32h0.22l0.43,0.02c0.04,0,0.12-0.01,0.22-0.02v-7.4h1.83c1.42,0,2.42,0.12,3,0.37
				c0.58,0.25,1.08,0.77,1.49,1.55c-0.41-0.56-0.92-0.96-1.54-1.19c-0.62-0.23-1.48-0.34-2.6-0.34h-1.71v7.01
				c2.19,0,3.8-0.32,4.83-0.96s1.54-1.65,1.54-3.02c0-1.54-0.46-2.66-1.37-3.35c-0.91-0.7-2.38-1.05-4.41-1.05
				C454.31,384.36,453.67,384.39,452.92,384.43z"/>
			<path d="M467.09,382.72h7.81l-2.26,2.21v7.17c0.25,0.04,0.55,0.08,0.9,0.1v-7.11l1.81-1.79l0.33,0.3l-1.71,1.69v6.92l0.55,0.05
				c0.85,0.08,1.68,0.12,2.48,0.12c1.15,0,2.14-0.06,2.97-0.17v-7.64l-2.03-1.86h7.68l-2.29,2.21v17.3l2.01,1.79h-7.64l2.28-1.94
				v-7.04c-0.93,0.22-1.89,0.33-2.88,0.33c-0.93,0-1.89-0.05-2.89-0.15l-0.23-0.02v7.02l2.74,3.15h-8.59l-0.43-0.45h8.11l-2.26-2.47
				v-7.64l0.48,0.03c1.46,0.11,2.52,0.17,3.17,0.17c1.06,0,1.99-0.14,2.78-0.43v-0.6c-1.04,0.16-2.25,0.23-3.64,0.23
				c-0.74,0-1.28-0.02-1.63-0.05l-1.68-0.15c-0.07-0.01-0.19-0.02-0.38-0.03v8.23l2.13,1.79h-7.68l2.23-1.94v-7.25
				c-0.93,0-1.67,0.37-2.23,1.1l-0.35-0.17c0.64-0.81,1.5-1.26,2.58-1.34v-0.61c-1.24,0-2.22,0.47-2.94,1.41l-0.25-0.17
				c0.65-1.59,1.72-2.53,3.19-2.82v-7.47L467.09,382.72z M486.31,383.65l-1.7,1.64v16.93l2.76,3.15h-8.62l-0.42-0.45h8.09
				l-2.23-2.51v-17.3l1.84-1.83L486.31,383.65z"/>
			<path d="M511.29,376.88l0.1,0.13l-0.17,0.18c-1.98,2.06-3.62,4.15-4.9,6.28c-0.5,0.81-0.85,1.38-1.06,1.73l-6.18,9.88v6.74
				l2.41,2.21h-8.09l2.39-2.21v-6.74l-3.99-6.13l-0.86-1.38c-0.79-1.23-1.43-2.13-1.94-2.69c-0.5-0.56-1.25-1.23-2.24-2.01
				l-0.18-0.15h8.39l-2.06,2.14l5.53,8.33l0.53-0.85l-4.94-7.49l1.75-1.66l0.35,0.27l-1.51,1.39l4.6,7.09l3.72-5.86
				c1.07-1.7,1.61-2.98,1.61-3.82c0-0.71-0.47-1.52-1.41-2.42c3.22-0.77,5.87-1.73,7.94-2.87L511.29,376.88z M512.03,377.87v0.68
				l-0.17,0.17c-0.93,0.89-1.73,1.77-2.4,2.66s-1.66,2.37-2.98,4.47l-6.01,9.46v6.51l2.96,3.57h-10.4l-0.2-0.45h9.72l-2.53-3.12
				v-6.62l6.13-9.66l0.96-1.53C508.83,381.26,510.47,379.22,512.03,377.87z"/>
		</g>
	</g>
	<rect x="302.2" y="284.28" class="st3" width="163.98" height="83.46"/>
	<path class="st4" d="M342.37,216.67"/>
	<g>
		<g>
			<g>
			</g>
		</g>
		<rect x="301.6" y="284.28" class="st5" width="163.88" height="83.46"/>
		<rect x="415.43" y="289.66" class="st5" width="26.79" height="5.12"/>
		<path class="st6" d="M383.54,287.04c-23.32,0-42.22,17.45-42.22,38.98c0,21.53,18.9,38.98,42.22,38.98
			c23.32,0,42.22-17.45,42.22-38.98C425.76,304.49,406.85,287.04,383.54,287.04z M383.54,358.29c-20.09,0-36.38-14.45-36.38-32.28
			c0-17.83,16.29-32.28,36.38-32.28c20.09,0,36.38,14.45,36.38,32.28C419.92,343.84,403.63,358.29,383.54,358.29z"/>
		<path class="st7" d="M319.47,279.45h-11.85c-1.33,0-2.41,1.08-2.41,2.41v0c0,1.33,1.08,2.41,2.41,2.41h11.85
			c1.33,0,2.41-1.08,2.41-2.41v0C321.89,280.53,320.81,279.45,319.47,279.45z"/>
		<line class="st8" x1="415.81" y1="289.66" x2="442.61" y2="289.66"/>
		<line class="st5" x1="415.43" y1="292.23" x2="442.22" y2="292.23"/>
		<line class="st9" x1="416.4" y1="292.22" x2="441.19" y2="292.22"/>
	</g>
	<rect x="416.4" y="289.81" class="st10" width="24.79" height="0.44"/>
	<circle class="st8" cx="383.54" cy="326.01" r="18.44"/>
	<polyline class="st5" points="301.6,300.64 325.49,326.01 325.49,359.94 303.99,364.99 	"/>
	<polyline class="st2" points="427.92,366.53 427.92,356.42 465.48,356.42 	"/>
	<g>
		<g>
			<path d="M284.13,168.78c3.64-3.29,5.53-4.84,9.4-7.78c0.22,0.24,0.33,0.36,0.56,0.6c-2.78,2.11-3.32,3.22-2.16,4.39
				c5.04,5.07,7.56,7.6,12.61,12.67c0.93,0.93,2.11,0.73,4.45-1.04c0.22,0.24,0.33,0.36,0.56,0.6c-3.21,2.43-4.77,3.72-7.79,6.45
				c-0.24-0.22-0.37-0.33-0.61-0.55c2.2-1.98,2.52-3.02,1.57-3.93c-5.15-4.97-7.73-7.46-12.89-12.44c-1.18-1.14-2.45-0.76-5.07,1.6
				C284.5,169.11,284.37,169,284.13,168.78z"/>
			<path d="M312.29,176.18c-0.21-0.24-0.31-0.35-0.52-0.59c1.52-1.09,1.8-1.97,1.01-2.92c-2.44-2.92-3.67-4.38-6.11-7.31
				c-0.94-1.12-1.85-0.86-3.42,0.25c-0.2-0.13-0.3-0.19-0.5-0.32c1.44-1.67,2.19-2.49,3.71-4.11c0.73,0.91,1.1,1.37,1.83,2.28
				c0.57-1.84,1.68-4.55,4.59-6.24c1.75-1.01,4.17-1.24,5.72,0.01c0.91-2.05,2.44-4.42,5.18-5.7c2.73-1.28,5.27-0.41,6.07,1.12
				c1.75,3.32,2.62,4.98,4.37,8.3c0.56,1.07,1.68,1.21,3.26,0.57c0.14,0.27,0.2,0.41,0.34,0.68c-2.7,1.09-4.03,1.67-6.67,2.92
				c-0.15-0.27-0.23-0.4-0.39-0.66c1.54-0.73,1.98-1.54,1.39-2.61c-1.72-3.11-2.57-4.66-4.29-7.77c-0.63-1.15-2.42-1.83-4.66-0.75
				c-2.02,0.97-3.24,2.79-4.06,4.71c2.03,3.09,3.04,4.63,5.07,7.71c0.67,1.02,1.71,1.11,3.16,0.37c0.16,0.26,0.25,0.39,0.41,0.65
				c-2.53,1.29-3.79,1.98-6.25,3.42c-0.18-0.25-0.27-0.38-0.45-0.63c1.54-0.9,1.84-1.72,1.14-2.73c-2.03-2.97-3.05-4.45-5.08-7.41
				c-0.76-1.12-2.7-1.44-4.49-0.38c-2.29,1.36-3.12,3.03-3.71,5.23c2.29,2.85,3.44,4.28,5.73,7.13c0.77,0.96,1.73,1.02,3.31,0.03
				c0.19,0.25,0.28,0.37,0.47,0.62C315.95,173.62,314.72,174.45,312.29,176.18z"/>
			<path d="M340.74,161.06c-0.13-0.28-0.19-0.42-0.32-0.69c1.73-0.65,2.24-1.42,1.76-2.53c-1.48-3.41-2.22-5.11-3.7-8.52
				c-0.57-1.31-1.5-1.29-3.28-0.63c-0.15-0.17-0.23-0.26-0.38-0.43c1.82-1.22,2.74-1.82,4.63-2.98c0.43,1.05,0.65,1.58,1.08,2.64
				c1.05-1.62,2.85-3.93,6.07-4.82c1.93-0.54,4.28-0.15,5.4,1.42c1.43-1.74,3.56-3.65,6.51-4.22c2.95-0.57,5.11,0.88,5.43,2.54
				c0.71,3.62,1.07,5.42,1.78,9.04c0.23,1.17,1.25,1.57,2.93,1.34c0.05,0.3,0.08,0.44,0.13,0.74c-2.88,0.4-4.31,0.64-7.16,1.2
				c-0.07-0.29-0.11-0.44-0.18-0.73c1.67-0.33,2.31-1,2.06-2.17c-0.74-3.41-1.11-5.11-1.86-8.52c-0.27-1.26-1.78-2.34-4.21-1.85
				c-2.19,0.44-3.85,1.88-5.17,3.53c1.04,3.46,1.56,5.19,2.61,8.65c0.35,1.15,1.3,1.49,2.88,1.13c0.08,0.29,0.12,0.44,0.2,0.73
				c-2.76,0.62-4.14,0.97-6.86,1.74c-0.1-0.29-0.15-0.43-0.25-0.72c1.71-0.48,2.21-1.19,1.85-2.33c-1.08-3.35-1.62-5.02-2.71-8.37
				c-0.41-1.26-2.14-2.05-4.12-1.48c-2.54,0.73-3.79,2.13-4.95,4.08c1.36,3.3,2.04,4.96,3.4,8.26c0.46,1.11,1.34,1.41,3.1,0.86
				c0.11,0.28,0.16,0.42,0.27,0.71C344.88,159.55,343.49,160.02,340.74,161.06z"/>
			<path d="M374.16,145.43c0.61,5.41,4.01,6.91,7.55,6.76c2.87-0.12,5.05-1.13,6.96-3.08c0.21,0.15,0.31,0.23,0.52,0.38
				c-1.69,2.01-3.82,3.63-7.94,3.81c-5.07,0.23-8.9-2.44-9.53-7.13c-0.58-4.31,2.69-8.19,8.44-8.46c5.5-0.26,8.89,2.49,8.83,7.12
				C383.05,144.77,380.08,144.89,374.16,145.43z M386.43,143.95c-0.27-3.9-2.54-5.66-6.27-5.49c-3.52,0.17-6.24,2.84-6.11,6.09
				C379,144.11,381.48,143.99,386.43,143.95z"/>
			<path d="M392.96,152.78c0.02-0.31,0.02-0.47,0.04-0.78c1.48,0.06,2.46-0.28,2.55-1.5c0.28-3.83,0.42-5.74,0.7-9.57
				c0.08-1.09-0.31-1.47-2.4-1.56c-0.07-0.19-0.11-0.29-0.18-0.48c2.11-0.53,3.18-0.77,5.34-1.22c-0.14,1.54-0.22,2.32-0.36,3.86
				c2.66-1.46,6.15-3.34,8.89-2.97c1.2,0.16,2.02,1.04,1.89,1.75c-0.13,0.71-1.19,1.28-2.36,1.12c-1.34-0.18-1.5-1.04-2.44-1.15
				c-1.19-0.14-3.93,1.22-6.09,2.37c-0.3,3.2-0.45,4.8-0.75,8c-0.11,1.21,0.4,1.65,2.31,1.83c-0.04,0.31-0.05,0.47-0.09,0.78
				C397.2,152.99,395.79,152.9,392.96,152.78z"/>
			<path d="M412.49,150.43c1.27,2.18,3.03,4.79,7,5.76c2.36,0.58,4.52-0.05,5.19-1.98c0.47-1.37-0.56-2.55-4.24-4.48
				c-5.46-2.87-6.69-4.33-6.24-6.32c0.42-1.87,3.23-2.95,7.14-2.06c2.24,0.51,3.36,1.39,4.17,1.6c0.16,0.04,0.29,0.04,0.42,0.05
				c0.66-0.05,0.99-0.07,1.66-0.11c0.34,1.96,0.49,2.94,0.77,4.9c-0.3,0.02-0.45,0.03-0.74,0.05c-0.43-1.43-2.56-4.83-6.48-5.72
				c-2.51-0.57-4.48,0.01-4.89,1.69c-0.37,1.49,1.47,2.5,4.72,4.18c4.9,2.53,6.41,4.38,5.55,6.76c-0.96,2.64-4.32,3-7.26,2.27
				c-2.02-0.5-3.03-1.36-4.04-1.57c-0.18-0.04-0.36-0.08-0.56-0.05c-0.64,0.08-0.96,0.13-1.6,0.22c-0.38-2.03-0.59-3.05-1.05-5.08
				C412.19,150.49,412.29,150.47,412.49,150.43z"/>
			<path d="M429.5,159.45c0.12-0.29,0.18-0.44,0.3-0.73c1.61,0.54,2.42,0.53,2.93-0.63c1.55-3.55,2.32-5.32,3.87-8.87
				c0.33-0.76,0.15-1.48-2.04-2.21c0.03-0.19,0.04-0.29,0.06-0.48c2.25,0.15,3.39,0.25,5.66,0.49c-2.18,4.73-3.27,7.1-5.45,11.83
				c-0.53,1.15-0.13,1.6,1.66,2.3c-0.14,0.29-0.21,0.43-0.35,0.71C433.52,160.83,432.19,160.35,429.5,159.45z M443.96,141.58
				c-0.34,0.72-1.4,1.15-2.83,0.63c-1.47-0.54-1.81-1.49-1.5-2.21c0.31-0.73,1.3-1.23,2.8-0.68
				C443.89,139.85,444.3,140.86,443.96,141.58z"/>
			<path d="M459.25,165.05c-2.48,3.35-7.02,5-12.11,2.38c-5.12-2.64-5.75-6.95-3.82-10.59c1.92-3.6,6.54-6,12.4-2.98
				C461.54,156.86,461.71,161.73,459.25,165.05z M445.65,157.87c-1.81,3.23-1.81,6.99,1.9,8.9c3.68,1.89,7.29,0,9.46-3.05
				c2.17-3.05,2.45-7.08-1.7-9.22C451.12,152.35,447.46,154.64,445.65,157.87z"/>
			<path d="M458.15,173.23c0.2-0.25,0.3-0.38,0.51-0.63c1.56,1.02,2.37,0.99,3.28-0.11c2.43-2.92,3.65-4.37,6.08-7.29
				c0.85-1.02,0.73-1.59-1.08-2.78c0.09-0.19,0.13-0.28,0.22-0.47c2.08,0.75,3.12,1.15,5.2,2c-0.75,0.87-1.13,1.3-1.88,2.16
				c2.28,0.14,5.34,0.35,8.07,2.52s2.9,4.65,0.77,6.66c-2.46,2.32-3.69,3.48-6.15,5.8c-1.05,0.99-0.86,1.79,0.49,3.01
				c-0.24,0.22-0.37,0.33-0.61,0.55c-2.16-1.95-3.27-2.88-5.52-4.68c0.23-0.23,0.34-0.35,0.57-0.59c1.41,1.13,2.28,1.23,3.31,0.22
				c2.44-2.39,3.66-3.58,6.1-5.97c1.31-1.29,1.63-2.72-0.59-4.46c-2.15-1.69-4.51-2.22-7.09-2.29c-2.4,2.77-3.6,4.15-6,6.91
				c-0.94,1.08-0.64,1.88,0.78,2.92c-0.22,0.24-0.33,0.36-0.55,0.6C461.73,175.61,460.55,174.79,458.15,173.23z"/>
		</g>
	</g>
	<rect x="165.85" y="128.71" class="st0" width="66.38" height="26.21"/>
	<text transform="matrix(1 0 0 1 165.8512 133.7991)">Jordan Powell has </tspan>rights and owns </tspan><tspan x="0" y="16.8">this logo</tspan></text>
</g>
<g id="Layer_2">
</g>
</svg>
